<svg width="691" height="174" viewBox="0 0 691 174" fill="none" xmlns="http://www.w3.org/2000/svg">
<path d="M448 168.001L447.995 169.001L448 168.001ZM679.667 168.001C679.667 170.947 682.054 173.334 685 173.334C687.946 173.334 690.333 170.947 690.333 168.001C690.333 165.056 687.946 162.668 685 162.668C682.054 162.668 679.667 165.056 679.667 168.001ZM1.5 0.5L0.514947 0.67225C8.57471 46.764 34.8584 76.3879 69.3175 94.0385C103.735 111.668 146.283 117.347 186.978 115.687C227.678 114.026 266.63 105.02 293.906 93.1751C307.533 87.2576 318.324 80.5984 324.951 73.7305C331.575 66.8659 334.227 59.5572 330.903 52.5704L330 53L329.097 53.4296C331.898 59.3178 329.878 65.7435 323.512 72.3418C317.148 78.9367 306.631 85.4689 293.11 91.3406C266.089 103.074 227.385 112.036 186.897 113.688C146.404 115.34 104.234 109.676 70.2293 92.2584C36.2666 74.8621 10.4253 45.736 2.48505 0.32775L1.5 0.5ZM330 53L330.903 52.5704C327.714 45.8675 322.879 42.5487 317.353 42.1094C311.903 41.6762 305.991 44.0611 300.585 48.2863C289.768 56.7409 280.532 72.8965 280.411 90.7329C280.289 108.652 289.363 128.129 314.909 143.148C340.404 158.137 382.315 168.702 447.995 169.001L448 168.001L448.005 167.001C382.483 166.703 340.981 156.156 315.922 141.423C290.914 126.721 282.295 107.866 282.411 90.7464C282.528 73.5444 291.462 57.9553 301.817 49.8621C306.997 45.8134 312.422 43.7238 317.194 44.1031C321.89 44.4764 326.161 47.2575 329.097 53.4296L330 53ZM448 168.001L447.995 169.001C502.748 169.251 562.001 169.251 607.564 169.188C630.346 169.157 649.706 169.11 663.37 169.071C670.202 169.052 675.611 169.034 679.311 169.022C681.161 169.015 682.584 169.01 683.545 169.007C684.025 169.005 684.39 169.003 684.635 169.002C684.757 169.002 684.849 169.002 684.911 169.001C684.942 169.001 684.965 169.001 684.981 169.001C684.988 169.001 684.994 169.001 684.998 169.001C685 169.001 685.001 169.001 685.002 169.001C685.003 169.001 685.004 169.001 685 168.001C684.996 167.001 684.996 167.001 684.995 167.001C684.994 167.001 684.992 167.001 684.99 167.001C684.986 167.001 684.981 167.001 684.973 167.001C684.957 167.001 684.934 167.001 684.903 167.001C684.842 167.002 684.749 167.002 684.627 167.002C684.383 167.003 684.018 167.005 683.538 167.007C682.577 167.01 681.154 167.015 679.304 167.022C675.604 167.034 670.196 167.052 663.364 167.071C649.701 167.11 630.342 167.157 607.561 167.188C561.999 167.251 502.752 167.251 448.005 167.001L448 168.001Z" fill="#130C0E"/>
</svg>
